<svg xmlns="http://www.w3.org/2000/svg" viewBox="0 0 608.72 492.38"><defs><style>.cls-1{fill:#fff;}</style></defs><g id="Layer_2" data-name="Layer 2"><g id="Layer_1-2" data-name="Layer 1"><path class="cls-1" d="M159.62,353a137.67,137.67,0,0,0,7.18,16.82,150.14,150.14,0,0,0,9.69,16.56c.91,1.36,1.87,2.71,2.85,4s2.16,2.84,3.21,4.2l1.3,1.65.32.41.17.21.4.46.8.93L188.8,402a168.84,168.84,0,0,0,30.74,26.74,186.56,186.56,0,0,0,18.05,10.73q2,1,4.13,2c5.61-1.59,11.14-3.3,16.54-5.14l7.85-2.65,4-1.5c1.41-.52,2.64-1,3.61-1.38l1.38-.55c2.18-.87,4.24-1.69,6.3-2.59l.25-.1c2.5-1,5.08-2.19,7.49-3.29a260.59,260.59,0,0,0,29.16-15.5c2.15-1.32,4.29-2.69,6.4-4.11a202.8,202.8,0,0,1-48.57-9.83C256.48,388.26,239,378.55,225,366.21l-2.58-2.35-.65-.58c0,.05-.32-.32,0,.08l-.19-.19-.37-.37-1.49-1.47c-.75-.76-1.35-1.28-2.16-2.16s-1.51-1.62-2.26-2.44A103.69,103.69,0,0,1,207,346.39a124.87,124.87,0,0,1-12.7-22.62,134.46,134.46,0,0,1-11.07-45.67,120.73,120.73,0,0,1,3.4-37.44,111.29,111.29,0,0,1,9-23.65c1.37-2.66,2.54-4.67,3.33-6l1.22-2.06,7.44-11.48-11.37,7.69-2.07,1.47c-1.36,1-3.33,2.5-5.81,4.64a98.54,98.54,0,0,0-18.6,21.89,122.37,122.37,0,0,0-16.48,42.67,147.85,147.85,0,0,0,1.45,60.51A154.2,154.2,0,0,0,159.62,353Z"/><path class="cls-1" d="M575.64,165.86c-1.91-9.11-4.17-17.63-6.6-25.51-2.34-7.53-4.82-14.47-7.34-20.84l47,9.92L506.9,0l12.41,173.48,30.05-49.85c1.64,6.3,3.18,13.11,4.47,20.44,1.37,7.68,2.47,15.89,3.21,24.54a253,253,0,0,1,1,27.22,234.58,234.58,0,0,1-8.69,59.61,212.23,212.23,0,0,1-27.46,59.68l-2.39,3.53L517,322.14l-2.56,3.49c-1,1.36-1.74,2.28-2.56,3.33l-1.23,1.55-1.34,1.61c-.92,1.07-1.78,2.17-2.74,3.22l-2.83,3.15-2.93,3.09a184.37,184.37,0,0,1-26.37,22.34,210.61,210.61,0,0,1-26.36,15.69,232.17,232.17,0,0,1-25.78,35l-1.43,1.57c-2,2.22-4.13,4.52-6.62,7l-3.65,3.65-6.46,5.94-6.46,5.54-.25.2c-.86.67-1.71,1.35-2.56,2-1.91,1.53-3.89,3.12-6,4.69-4.7,3.53-9.55,6.89-14.5,10.1l.75-.16,2.84-.63c.91-.21,1.62-.41,2.43-.62l5.19-1.36c6.77-1.86,13.49-4,20.17-6.23s13.33-4.66,19.88-7.34c26.18-10.66,51.6-24.18,73.76-42a215.91,215.91,0,0,0,30.36-29.38l3.34-4.05,3.22-4.12c1.07-1.37,2.06-2.8,3.09-4.2l1.53-2.12,1.53-2.24c1-1.49,2.11-3.07,2.86-4.31l2.66-4.25q2.56-4.33,5-8.72a235.51,235.51,0,0,0,24.72-71.82,236.86,236.86,0,0,0,3.44-34.64,260,260,0,0,0-1.09-32.2A275.49,275.49,0,0,0,575.64,165.86Z"/><path class="cls-1" d="M460.29,288.12c.4-2.86-.08-5.73-.14-8.58-.16-1.85-.49-3.7-.65-5.54s-.34-3.69-.54-5.53-.58-3.63-.88-5.44-.63-3.62-.94-5.42-.84-3.54-1.26-5.31c-.93-3.51-1.71-7.07-2.94-10.44a155.3,155.3,0,0,0-8-19.8c-1.63-3.12-3.2-6.26-4.9-9.3L434.56,204a155.79,155.79,0,0,0-26.66-30.16,141.66,141.66,0,0,0-31.76-21.16l-2.06-1-.52-.25-1.09-.56-.22-.09-.9-.35-3.56-1.4-3.54-1.39-.89-.35-1.14-.4L360,146l-4.5-1.49c-1.47-.46-3-1-4.41-1.36l-8.29-1.9a142.43,142.43,0,0,0-31.5-2.9l-3.7,0-3.64.29-7.09.6c-4.62.69-9.09,1.24-13.34,2.26a135.54,135.54,0,0,0-41.19,16.12L238.53,160l-1.78,1.11-1.66,1.21-6,4.46c-3.58,3-6.49,5.62-8.77,7.8-4.39,4.63-6.53,7.13-6.53,7.13L207,190.28l10.05-4.22s3.08-1.15,8.49-3.38c1.37-.54,3-1,4.66-1.58s3.51-1.25,5.53-1.81l6.48-1.74,1.74-.46,1.83-.37,3.78-.77a151.26,151.26,0,0,1,36.83-2.52c1.74,0,3.51.27,5.29.46s3.57.32,5.38.53l5.48.91,2.77.46,2.77.64c1.85.42,3.72.81,5.6,1.26l5.6,1.67c1.89.51,3.74,1.23,5.61,1.9l2.81,1,1.41.5,1.37.63,5.54,2.47c1.71.86,3.21,1.73,4.85,2.55l1.2.62.61.3.79.48,3.26,1.94,3.29,2,.83.49.21.12c-1.62-.82-.36-.16-.68-.31l.31.23,1.26.94a108.91,108.91,0,0,1,19.26,17,132,132,0,0,1,16,21.83,135.51,135.51,0,0,1,11.62,25.64c.9,2.22,1.43,4.54,2.12,6.83s1.21,4.63,1.75,7c.25,1.17.57,2.34.79,3.53s.36,2.37.56,3.56l.62,3.58.29,3.1.42,3.12a4,4,0,0,1,.05.43v1.73l0,2.33.09,4.65,0,.58v.29c.11-2,0-.42.05-.8l0,.93-.06,1.87a117.62,117.62,0,0,1-1.47,15.15A128.05,128.05,0,0,1,394.85,348a130.25,130.25,0,0,1-7.68,14.64c-1.36,2.43-3,4.7-4.52,7.05-.77,1.16-1.63,2.27-2.45,3.41s-1.61,2.3-2.51,3.39c-1.75,2.18-3.52,4.48-5.23,6.39l-1.28,1.51-.64.75-.33.38-.41.44-3.29,3.47-.82.87-.41.43-.2.22c.54-.52,0,0,.11-.1l-1.53,1.5-3,3c-2.14,1.91-4.18,3.92-6.39,5.76a218.76,218.76,0,0,1-28,20.49A278.19,278.19,0,0,1,295.4,438c-2.65,1.2-5.3,2.39-8,3.5s-5.31,2.19-7.93,3.24c-1.26.53-2.69,1-4.12,1.58l-4.25,1.58-8,2.71a374.13,374.13,0,0,1-64.46,15.55,381,381,0,0,1-59.84,4.18l-6.93-.11-3.42,0-3.37-.18L112,469.29c-8.49-.85-16.61-1.46-24.15-2.67-15.16-2-28.22-4.94-39-7.4-10.63-2.72-19-5-24.7-7l-8.75-2.77L0,444.4l13.42,10.17,8.34,3.85c5.35,2.62,13.62,6,24.23,10.07l8.44,3c3,1,6,2.19,9.32,3.11L74,477.64l2.68.8,2.76.7,5.67,1.43c7.66,2.09,16,3.64,24.69,5.48l13.55,2.21,3.5.55,3.55.41,7.24.83a402.68,402.68,0,0,0,63.56,1.81A387.11,387.11,0,0,0,272,481.6l4.56-1.11,2.29-.57,1.14-.28.58-.14a2.67,2.67,0,0,0,.44-.12l.28-.08,4.37-1.21c1.44-.4,2.9-.8,4.5-1.3,3.11-.94,6.26-1.88,9.29-2.9s6.12-2,9.18-3.13a290.39,290.39,0,0,0,36.43-15.84,243.63,243.63,0,0,0,34.85-21.8c2.81-2.05,5.49-4.31,8.25-6.47l4-3.43,2-1.72,2.1-1.92,3.52-3.24.44-.41.49-.49,1-1,2-2c2.73-2.67,5-5.28,7.47-7.91a218.6,218.6,0,0,0,25.38-34.83,188,188,0,0,0,9.85-19.54A177.41,177.41,0,0,0,454,329.41a165.68,165.68,0,0,0,4.67-21.82l.39-2.77.2-1.39.18-2.25.39-4.64.2-2.32.13-1.15.13-.58c0-.2.21-.53.19-.77C460.39,290.51,460.34,289.33,460.29,288.12Z"/></g></g></svg>